# xmcd
#
# Track frame offsets:
#        150
#        18924
#        38675
#        53958
#        76437
#        91664
#        113849
#        135355
#        150261
#        173007
#        189966
#
# Disc length: 2724 seconds
#
# Revision: 0
# Processed by: cddbd v1.5.1PL0 Copyright (c) Steve Scherf et al.
# Submitted via: ExactAudioCopy v0.95a5
#
DISCID=700aa20b
DTITLE=Mari Iijima - Gems
DYEAR=2004
DGENRE=Pop
TTITLE0=Us
TTITLE1=No Limit
TTITLE2=More Than Yesterday
TTITLE3="D"
TTITLE4=Right Now
TTITLE5=Pizza Man
TTITLE6=Eternal Summer
TTITLE7=Sing For Me
TTITLE8=If You Really Want To Know
TTITLE9=I Can't Take It
TTITLE10=Unsperkable
EXTD=
EXTT0=
EXTT1=
EXTT2=
EXTT3=
EXTT4=
EXTT5=
EXTT6=
EXTT7=
EXTT8=
EXTT9=
EXTT10=
PLAYORDER=
